<?xml version="1.0" encoding="UTF-8" standalone="no"?>
<svg
   width="24"
   height="25"
   viewBox="0 0 24 25"
   fill="none"
   version="1.1"
   id="svg19"
   sodipodi:docname="like_active.svg"
   inkscape:version="1.1 (c68e22c387, 2021-05-23)"
   xmlns:inkscape="http://www.inkscape.org/namespaces/inkscape"
   xmlns:sodipodi="http://sodipodi.sourceforge.net/DTD/sodipodi-0.dtd"
   xmlns="http://www.w3.org/2000/svg"
   xmlns:svg="http://www.w3.org/2000/svg">
  <defs
     id="defs23" />
  <sodipodi:namedview
     id="namedview21"
     pagecolor="#ffffff"
     bordercolor="#666666"
     borderopacity="1.0"
     inkscape:pageshadow="2"
     inkscape:pageopacity="0.0"
     inkscape:pagecheckerboard="0"
     showgrid="false"
     inkscape:zoom="32"
     inkscape:cx="15.765625"
     inkscape:cy="11.890625"
     inkscape:window-width="1920"
     inkscape:window-height="1001"
     inkscape:window-x="-9"
     inkscape:window-y="-9"
     inkscape:window-maximized="1"
     inkscape:current-layer="svg19" />
  <path
     opacity="0.54"
     fill-rule="evenodd"
     clip-rule="evenodd"
     d="M17.5 1C15.0556 1 12.8556 2.7875 12 5.125C11.1444 2.7875 8.94444 1 6.5 1C3.44444 1 1 3.6125 1 7.1875C1 12 5.27778 16.125 12 23C18.7222 16.125 23 12 23 7.1875C23 3.6125 20.5556 1 17.5 1Z"
     stroke="black"
     stroke-width="2"
     id="path17" />
  <path
     style="fill:#ff5555;stroke-width:0.03125"
     d="M 9.8889812,22.244047 C 7.8340556,20.135677 6.9422356,19.207813 6.1399197,18.343462 2.0124807,13.896895 0.32361069,11.012015 0.04804858,7.9375 -0.06027169,6.7289441 0.10981363,5.4467594 0.52573387,4.3364794 1.4608025,1.8403569 3.6442231,0.16650887 6.1356416,0.03582701 7.6894519,-0.04567466 9.1220837,0.41218125 10.453125,1.4156547 c 0.367222,0.2768491 1.077087,0.986089 1.328125,1.3269549 0.103125,0.140026 0.201562,0.2545927 0.21875,0.2545927 0.01719,0 0.115625,-0.1145667 0.21875,-0.2545927 0.251037,-0.3408659 0.960903,-1.0501058 1.328125,-1.3269549 1.235762,-0.93164239 2.535108,-1.38775562 3.951013,-1.38693621 1.137486,6.5828e-4 2.106273,0.25767498 3.087232,0.81903457 0.847254,0.48484584 1.719071,1.33942204 2.271384,2.22646414 0.770404,1.2373078 1.173586,2.8217197 1.118266,4.3945328 -0.102248,2.90706 -1.494814,5.637527 -4.803972,9.419367 -1.134202,1.296212 -2.147073,2.370507 -4.684123,4.968184 -0.955171,0.977997 -1.905425,1.952662 -2.111675,2.165923 L 12,24.40997 Z m 3.5851088,-2.15811 c 3.472607,-3.570059 4.862727,-5.122226 6.108271,-6.820312 C 21.609082,10.502536 22.32974,8.2047465 21.887818,5.9147616 21.695275,4.9170222 21.230697,4.0084628 20.55594,3.3100462 19.956422,2.6895076 19.313249,2.3125009 18.5,2.1049228 18.070085,1.9951889 17.295475,1.9676325 16.823147,2.0452694 15.440403,2.2725517 14.144239,3.2156356 13.343911,4.5767481 13.1118,4.9714975 13.073071,5.0653028 12.511489,6.5929281 12.236803,7.3401322 12.008079,7.9554625 12.003213,7.9603287 11.998347,7.965195 11.779414,7.3819712 11.516697,6.6642756 10.970644,5.1725609 10.885912,4.9669931 10.656262,4.576785 9.8536969,3.2131106 8.5690287,2.2787469 7.1768534,2.0461445 6.7436847,1.9737713 5.9320072,1.9954107 5.5594984,2.0892632 4.2115737,2.4288691 3.1683953,3.2992156 2.5449303,4.6043834 1.873005,6.0109981 1.8069833,7.8007134 2.3643334,9.5 c 0.7367416,2.246227 2.4308138,4.592106 6.1156919,8.46875 0.6031453,0.634533 3.5069707,3.625 3.5199747,3.625 0.0041,0 0.667431,-0.678516 1.47409,-1.507813 z"
     id="path375" />
</svg>
